<svg width="194" height="64" viewBox="0 0 194 64" fill="none" xmlns="http://www.w3.org/2000/svg">
<rect width="194" height="64" rx="32" fill="#FDDA00"/>
<path d="M59.2054 24.6662H62.4069V38.5H59.2054V24.6662ZM52.9209 38.5H49.7193V24.6662H52.9209V38.5ZM59.4425 32.8282H52.6837V30.1207H59.4425V32.8282ZM71.9993 38.5V36.4249L71.8017 35.9704V32.255C71.8017 31.5963 71.5975 31.0825 71.189 30.7136C70.7938 30.3447 70.1811 30.1602 69.3511 30.1602C68.7846 30.1602 68.2246 30.2524 67.6713 30.4369C67.1311 30.6082 66.67 30.8453 66.2879 31.1483L65.1812 28.9942C65.7609 28.5858 66.4592 28.2696 67.276 28.0456C68.0929 27.8216 68.9229 27.7097 69.7661 27.7097C71.3867 27.7097 72.6449 28.0917 73.5408 28.8559C74.4367 29.62 74.8846 30.8124 74.8846 32.4329V38.5H71.9993ZM68.7582 38.6581C67.9282 38.6581 67.2168 38.5198 66.6239 38.2431C66.031 37.9532 65.5765 37.5646 65.2603 37.0771C64.9441 36.5896 64.786 36.0429 64.786 35.4368C64.786 34.8044 64.9375 34.2511 65.2405 33.7768C65.5567 33.3025 66.0508 32.9336 66.7227 32.6701C67.3946 32.3934 68.2708 32.255 69.3511 32.255H72.1772V34.0534H69.6871C68.9624 34.0534 68.4618 34.172 68.1851 34.4092C67.9216 34.6463 67.7899 34.9427 67.7899 35.2985C67.7899 35.6937 67.9414 36.0099 68.2444 36.2471C68.5606 36.471 68.9888 36.583 69.529 36.583C70.0428 36.583 70.5039 36.4645 70.9123 36.2273C71.3208 35.977 71.6172 35.6147 71.8017 35.1404L72.276 36.5633C72.052 37.2484 71.6436 37.7688 71.0507 38.1245C70.4578 38.4802 69.6937 38.6581 68.7582 38.6581ZM88.2188 38.6581C87.0725 38.6581 86.0515 38.4275 85.1556 37.9664C84.2597 37.4921 83.5548 36.8399 83.041 36.0099C82.5403 35.1799 82.29 34.2379 82.29 33.1839C82.29 32.1167 82.5403 31.1747 83.041 30.3578C83.5548 29.5278 84.2597 28.8822 85.1556 28.4211C86.0515 27.9468 87.0725 27.7097 88.2188 27.7097C89.3387 27.7097 90.3136 27.9468 91.1436 28.4211C91.9737 28.8822 92.5863 29.5476 92.9815 30.4171L90.5903 31.7017C90.3136 31.201 89.9645 30.8321 89.5429 30.595C89.1344 30.3578 88.6865 30.2393 88.199 30.2393C87.672 30.2393 87.1977 30.3578 86.7761 30.595C86.3545 30.8321 86.0185 31.1681 85.7682 31.6029C85.5311 32.0376 85.4125 32.5646 85.4125 33.1839C85.4125 33.8031 85.5311 34.3301 85.7682 34.7649C86.0185 35.1997 86.3545 35.5356 86.7761 35.7728C87.1977 36.0099 87.672 36.1285 88.199 36.1285C88.6865 36.1285 89.1344 36.0165 89.5429 35.7925C89.9645 35.5554 90.3136 35.1799 90.5903 34.6661L92.9815 35.9704C92.5863 36.8268 91.9737 37.4921 91.1436 37.9664C90.3136 38.4275 89.3387 38.6581 88.2188 38.6581ZM97.1084 38.5V29.6859L97.8001 30.3974H93.5116V27.8678H103.768V30.3974H99.4799L100.172 29.6859V38.5H97.1084ZM111.775 38.5V36.4249L111.578 35.9704V32.255C111.578 31.5963 111.373 31.0825 110.965 30.7136C110.57 30.3447 109.957 30.1602 109.127 30.1602C108.561 30.1602 108.001 30.2524 107.447 30.4369C106.907 30.6082 106.446 30.8453 106.064 31.1483L104.957 28.9942C105.537 28.5858 106.235 28.2696 107.052 28.0456C107.869 27.8216 108.699 27.7097 109.542 27.7097C111.163 27.7097 112.421 28.0917 113.317 28.8559C114.213 29.62 114.661 30.8124 114.661 32.4329V38.5H111.775ZM108.534 38.6581C107.704 38.6581 106.993 38.5198 106.4 38.2431C105.807 37.9532 105.352 37.5646 105.036 37.0771C104.72 36.5896 104.562 36.0429 104.562 35.4368C104.562 34.8044 104.713 34.2511 105.016 33.7768C105.333 33.3025 105.827 32.9336 106.499 32.6701C107.171 32.3934 108.047 32.255 109.127 32.255H111.953V34.0534H109.463C108.738 34.0534 108.238 34.172 107.961 34.4092C107.698 34.6463 107.566 34.9427 107.566 35.2985C107.566 35.6937 107.717 36.0099 108.02 36.2471C108.337 36.471 108.765 36.583 109.305 36.583C109.819 36.583 110.28 36.4645 110.688 36.2273C111.097 35.977 111.393 35.6147 111.578 35.1404L112.052 36.5633C111.828 37.2484 111.42 37.7688 110.827 38.1245C110.234 38.4802 109.47 38.6581 108.534 38.6581ZM123.603 38.6581C122.708 38.6581 121.924 38.4605 121.252 38.0652C120.58 37.67 120.053 37.0705 119.671 36.2668C119.302 35.45 119.117 34.4223 119.117 33.1839C119.117 31.9322 119.295 30.9046 119.651 30.1009C120.007 29.2972 120.52 28.6978 121.192 28.3025C121.864 27.9073 122.668 27.7097 123.603 27.7097C124.605 27.7097 125.501 27.9402 126.291 28.4013C127.095 28.8493 127.727 29.4817 128.188 30.2985C128.663 31.1154 128.9 32.0772 128.9 33.1839C128.9 34.3038 128.663 35.2721 128.188 36.089C127.727 36.9058 127.095 37.5382 126.291 37.9862C125.501 38.4341 124.605 38.6581 123.603 38.6581ZM117.319 42.3339V27.8678H120.264V30.0416L120.204 33.2036L120.402 36.3459V42.3339H117.319ZM123.07 36.1285C123.584 36.1285 124.038 36.0099 124.433 35.7728C124.842 35.5356 125.165 35.1997 125.402 34.7649C125.652 34.3169 125.777 33.7899 125.777 33.1839C125.777 32.5646 125.652 32.0376 125.402 31.6029C125.165 31.1681 124.842 30.8321 124.433 30.595C124.038 30.3578 123.584 30.2393 123.07 30.2393C122.556 30.2393 122.095 30.3578 121.686 30.595C121.278 30.8321 120.955 31.1681 120.718 31.6029C120.481 32.0376 120.362 32.5646 120.362 33.1839C120.362 33.7899 120.481 34.3169 120.718 34.7649C120.955 35.1997 121.278 35.5356 121.686 35.7728C122.095 36.0099 122.556 36.1285 123.07 36.1285ZM132.947 38.5V29.6859L133.639 30.3974H129.35V27.8678H139.607V30.3974H135.319L136.01 29.6859V38.5H132.947ZM141.409 33.6977L140.796 24.6662H144.472L143.859 33.6977H141.409ZM142.634 38.6581C142.081 38.6581 141.626 38.4802 141.27 38.1245C140.915 37.7688 140.737 37.3472 140.737 36.8597C140.737 36.3591 140.915 35.944 141.27 35.6147C141.626 35.2721 142.081 35.1008 142.634 35.1008C143.201 35.1008 143.655 35.2721 143.998 35.6147C144.353 35.944 144.531 36.3591 144.531 36.8597C144.531 37.3472 144.353 37.7688 143.998 38.1245C143.655 38.4802 143.201 38.6581 142.634 38.6581Z" fill="#1E1A0F"/>
</svg>
